<?xml version="1.0" encoding="UTF-8" standalone="no"?>
<!-- Generator: Adobe Illustrator 23.0.1, SVG Export Plug-In . SVG Version: 6.00 Build 0)  -->

<svg
   version="1.1"
   id="Livello_1"
   x="0px"
   y="0px"
   viewBox="0 0 600.26 167.61701"
   enable-background="new 0 0 600.26 122.1"
   xml:space="preserve"
   width="600.26001"
   height="167.617"
   xmlns="http://www.w3.org/2000/svg"
   xmlns:svg="http://www.w3.org/2000/svg"><defs
   id="defs64" />
<g
   id="g59">
	
	
<g
   id="g6562"><g
     aria-label="LATIN AMERICA"
     transform="matrix(1.0119632,0,0,0.98817823,0,5.6547454)"
     id="text2555"
     style="font-size:38.6013px;line-height:1.25;font-family:'Test Geograph';-inkscape-font-specification:'Test Geograph';stroke-width:0.965029"><g
       id="g6649"><g
         id="g42"
         transform="matrix(0.98817823,0,0,1.0119632,0,-5.7223942)">
		<path
   fill="#0022af"
   d="M 166.28,58.998 147.948,14.114 h 8.634 l 10.467,26.788 11.472,-28.03 11.414,28.03 10.408,-26.788 h 8.279 L 190.349,58.998 178.285,30.081 Z"
   id="path2" />
		<path
   fill="#0022af"
   d="m 248.058,57.284 h -8.397 L 235.285,48 h -18.391 l -4.376,9.284 h -8.456 L 226.06,12.4 Z M 219.791,41.849 h 12.596 l -6.328,-13.365 z"
   id="path4" />
		<path
   fill="#0022af"
   d="m 261.598,57.284 h -7.984 V 14.115 h 12.182 c 9.521,0 16.321,4.909 16.321,13.365 0,5.854 -3.253,9.876 -8.456,11.827 l 13.423,17.977 H 277.8 L 265.441,40.608 h -3.844 l 0.001,16.676 z m 0,-23.064 h 4.199 c 4.909,0 8.22,-2.425 8.22,-6.741 0,-4.376 -3.311,-6.8 -8.22,-6.8 h -4.199 z"
   id="path6" />
		<path
   fill="#0022af"
   d="m 386.521,57.284 h -7.984 V 14.115 h 12.182 c 9.521,0 16.321,4.909 16.321,13.365 0,5.854 -3.253,9.876 -8.456,11.827 l 13.423,17.977 h -9.284 L 390.364,40.608 h -3.844 l 0.001,16.676 z m 0,-23.064 h 4.199 c 4.909,0 8.22,-2.425 8.22,-6.741 0,-4.376 -3.311,-6.8 -8.22,-6.8 h -4.199 z"
   id="path8" />
		<path
   fill="#0022af"
   d="m 324.314,14.115 h 7.806 V 58.939 L 301.724,29.667 v 27.616 h -7.806 V 12.458 l 30.396,29.272 z"
   id="path10" />
		<path
   fill="#0022af"
   d="m 342.586,14.115 h 26.611 v 6.623 h -18.805 v 11.177 h 17.327 v 6.682 h -17.327 v 12.064 h 18.924 v 6.623 h -26.729 l -10e-4,-43.169 z"
   id="path12" />
		<path
   fill="#0022af"
   d="m 433.114,14.115 h 12.419 c 9.639,0 14.665,4.494 14.665,11.413 0,4.435 -2.72,7.569 -6.031,8.989 4.909,1.301 8.693,5.026 8.693,10.467 0,7.628 -5.913,12.301 -15.257,12.301 h -14.488 l -0.001,-43.17 z m 11.946,18.272 c 4.494,0 7.333,-2.011 7.333,-5.796 0,-3.844 -2.838,-5.854 -7.333,-5.854 h -4.14 v 11.649 l 4.14,10e-4 z m 2.069,18.274 c 4.554,0 7.629,-2.366 7.629,-6.209 0,-3.785 -3.075,-6.15 -7.629,-6.15 h -6.209 v 12.359 z"
   id="path14" />
		<path
   fill="#0022af"
   d="m 479.233,57.284 h -7.984 V 14.115 h 12.182 c 9.521,0 16.321,4.909 16.321,13.365 0,5.854 -3.253,9.876 -8.456,11.827 l 13.423,17.977 h -9.284 L 483.076,40.608 h -3.844 l 10e-4,16.676 z m 0,-23.064 h 4.199 c 4.909,0 8.22,-2.425 8.22,-6.741 0,-4.376 -3.311,-6.8 -8.22,-6.8 h -4.199 z"
   id="path16" />
		<path
   fill="#0022af"
   d="m 551.356,35.699 c 0,12.301 -9.817,22.294 -22.058,22.294 -12.241,0 -22.057,-9.994 -22.057,-22.294 0,-12.3 9.817,-22.294 22.057,-22.294 12.241,0 22.058,9.993 22.058,22.294 z m -36.133,0 c 0,8.516 6.268,14.902 14.074,14.902 7.806,0 14.075,-6.387 14.075,-14.902 0,-8.515 -6.268,-14.902 -14.075,-14.902 -7.805,0 -14.074,6.386 -14.074,14.902 z"
   id="path18" />
		<path
   fill="#0022af"
   d="m 570.092,51.193 c 4.376,0 7.451,-1.951 7.451,-5.499 0,-2.779 -1.833,-4.022 -4.554,-5.381 l -7.215,-3.43 c -4.672,-2.248 -8.634,-5.026 -8.634,-11.059 0,-7.51 6.149,-12.419 14.193,-12.419 4.909,0 9.284,2.07 11.649,4.257 v 8.279 c -3.311,-3.311 -7.629,-5.736 -11.945,-5.736 -3.607,0 -6.328,1.774 -6.328,4.967 0,2.366 1.715,3.607 4.08,4.79 l 6.742,3.134 c 6.268,2.898 9.58,5.854 9.58,11.886 0,8.042 -6.682,13.01 -15.198,13.01 -5.499,0 -10.348,-2.069 -13.188,-4.317 v -8.16 c 3.787,3.075 8.459,5.678 13.367,5.678 z"
   id="path20" />
		<path
   fill="#0022af"
   d="m 600.26,52.67 c 0,2.838 -2.248,5.026 -5.026,5.026 h -0.119 c -2.78,0 -4.967,-2.188 -4.967,-5.026 0,-2.78 2.188,-4.967 4.967,-4.967 h 0.119 c 2.779,0 5.026,2.189 5.026,4.967 z"
   id="path22" />
		<path
   fill="#0022af"
   d="m 425.595,115.055 h -7.984 V 71.886 h 12.182 c 9.521,0 16.321,4.909 16.321,13.365 0,5.854 -3.253,9.876 -8.456,11.827 l 13.423,17.977 h -9.284 L 429.438,98.38 h -3.844 l 0.001,16.675 z m 0,-23.063 h 4.199 c 4.909,0 8.22,-2.425 8.22,-6.741 0,-4.376 -3.311,-6.8 -8.22,-6.8 h -4.199 z"
   id="path24" />
		<path
   fill="#0022af"
   d="m 381.245,71.886 h 26.611 v 6.623 h -18.805 v 11.177 h 17.327 v 6.682 h -17.327 v 12.064 h 18.924 v 6.623 h -26.729 l -10e-4,-43.169 z"
   id="path26" />
		<path
   fill="#0022af"
   d="m 331.083,93.471 c 0,12.301 -9.817,22.294 -22.058,22.294 -12.241,0 -22.057,-9.994 -22.057,-22.294 0,-12.3 9.817,-22.294 22.057,-22.294 12.241,0 22.058,9.994 22.058,22.294 z m -36.133,0 c 0,8.516 6.269,14.902 14.075,14.902 7.806,0 14.075,-6.387 14.075,-14.902 0,-8.515 -6.268,-14.902 -14.075,-14.902 -7.805,0 -14.075,6.387 -14.075,14.902 z"
   id="path28" />
		<path
   fill="#0022af"
   d="m 166.653,71.886 c 12.301,0 22.176,9.284 22.176,21.585 0,12.3 -9.876,21.585 -22.176,21.585 h -13.306 v -43.17 h 13.306 z m -5.321,6.624 v 29.923 h 4.79 c 8.693,0 14.725,-6.742 14.725,-14.961 0,-8.219 -6.034,-14.962 -14.667,-14.962 z"
   id="path30" />
		<path
   fill="#0022af"
   d="m 204.969,71.886 v 43.169 h -7.984 V 71.886 Z"
   id="path32" />
		<path
   fill="#0022af"
   d="m 226.449,108.965 c 4.376,0 7.452,-1.951 7.452,-5.499 0,-2.78 -1.833,-4.022 -4.554,-5.381 l -7.215,-3.43 c -4.672,-2.247 -8.634,-5.026 -8.634,-11.058 0,-7.511 6.15,-12.419 14.192,-12.419 4.909,0 9.284,2.069 11.649,4.257 v 8.279 c -3.312,-3.311 -7.629,-5.736 -11.946,-5.736 -3.607,0 -6.328,1.774 -6.328,4.968 0,2.365 1.715,3.607 4.08,4.79 l 6.742,3.135 c 6.268,2.898 9.579,5.854 9.579,11.886 0,8.042 -6.682,13.01 -15.197,13.01 -5.499,0 -10.349,-2.07 -13.188,-4.317 v -8.16 c 3.787,3.072 8.459,5.675 13.368,5.675 z"
   id="path34" />
		<path
   fill="#0022af"
   d="m 280.718,103.524 v 9.225 c -3.193,1.951 -7.037,3.016 -11.177,3.016 -12.301,0 -22.235,-9.994 -22.235,-22.294 0,-12.301 9.935,-22.294 22.235,-22.294 4.139,0 7.984,1.064 11.177,3.016 v 9.225 c -2.543,-2.838 -6.446,-4.612 -10.999,-4.612 -8.161,0 -14.429,6.387 -14.429,14.666 0,8.279 6.268,14.665 14.429,14.665 4.553,0 8.456,-1.775 10.999,-4.613 z"
   id="path36" />
		<path
   fill="#0022af"
   d="m 331.788,71.886 h 8.811 l 13.423,28.917 13.306,-28.917 h 8.456 l -21.998,44.884 z"
   id="path38" />
		<path
   fill="#0022af"
   d="M 465.679,115.055 V 95.659 L 449.534,71.886 h 9.048 l 11.059,16.381 11.177,-16.381 h 8.989 l -16.085,23.773 v 19.396 z"
   id="path40" />
	</g><g
         id="g57"
         transform="matrix(0.98817823,0,0,1.0119632,0,-5.7223942)">
		
			<linearGradient
   id="SVGID_1_"
   gradientUnits="userSpaceOnUse"
   x1="8.0859003"
   y1="63.357899"
   x2="118.3417"
   y2="63.357899"
   gradientTransform="matrix(1,0,0,-1,0,124)">
			<stop
   offset="0"
   style="stop-color:#4047FF"
   id="stop44" />
			<stop
   offset="1"
   style="stop-color:#04006C"
   id="stop46" />
		</linearGradient>
		<path
   fill="url(#SVGID_1_)"
   d="m 118.342,39.835 c -0.839,5.744 -3.541,24.512 -17.268,42.932 -13.962,18.968 -32.321,28.171 -37.86,31.002 C 57.675,110.937 39.316,101.735 25.354,82.767 11.627,64.346 8.926,45.577 8.086,39.835 l 8.34,-4.473 V 29.157 L 24.691,24.68 V 18.479 C 36.125,13.026 48.722,9.441 63.213,7.516 77.704,9.441 90.301,13.027 101.735,18.479 V 24.68 L 110,29.157 v 6.205 z"
   id="path49" />
		<path
   fill="#ffc200"
   d="m 117.468,30.905 v -6.184 l -8.265,-4.477 v -6.467 l -4.24,-2.019 C 92.915,6.013 79.593,2.177 64.228,0.136 L 63.224,0 62.22,0.136 C 46.854,2.177 33.533,6.014 21.486,11.758 l -4.24,2.019 v 6.467 L 8.98,24.721 v 6.184 L 0,35.722 0.71,40.855 c 2.379,17.223 8.659,32.81 18.655,46.337 10.103,13.669 23.741,24.852 40.535,33.245 l 3.324,1.663 3.324,-1.663 c 16.794,-8.393 30.432,-19.576 40.535,-33.245 9.996,-13.527 16.276,-29.114 18.655,-46.337 l 0.71,-5.133 z m 0.874,8.93 c -0.839,5.744 -3.541,24.512 -17.268,42.932 -13.962,18.968 -32.321,28.171 -37.86,31.002 C 57.675,110.937 39.316,101.735 25.354,82.767 11.627,64.346 8.926,45.577 8.086,39.835 l 8.34,-4.473 V 29.157 L 24.691,24.68 V 18.479 C 36.125,13.026 48.722,9.441 63.213,7.516 77.704,9.441 90.301,13.027 101.735,18.479 V 24.68 L 110,29.157 v 6.205 z"
   id="path51" />
		<path
   fill="#ffc200"
   d="m 50.861,22.439 0.384,50.448 -0.356,0.208 C 45.548,59.597 42.365,42.753 41.361,25.86 c -2.622,1.179 -5.404,2.638 -8.256,4.444 1.152,15.326 3.771,28.735 8.478,41.464 l -2.664,1.543 C 31.861,63.427 27.25,51.405 24.083,37.146 c -2.181,1.959 -4.345,4.153 -6.458,6.612 4.138,17.115 10.651,30.084 20.171,40.641 l 7.339,-4.387 c 3.595,7.491 8.646,14.883 14.195,20.792 v -79.86 c -2.825,0.275 -5.619,0.762 -8.469,1.495 z"
   id="path53" />
		<path
   fill="#ffc200"
   d="m 98.101,48.445 c 2.991,-3.311 3.627,-5.72 3.627,-8.635 0,-4.125 -3.408,-7.796 -8.365,-10.95 -2.994,-1.906 -7.577,-4.213 -14.261,-6.076 -3.846,-1.033 -7.856,-1.661 -11.982,-1.84 v 79.862 c 16.786,-8.642 36.741,-32.321 36.842,-44.369 0.031,-3.685 -1.913,-6.092 -5.861,-7.992 z M 75.374,30.494 c 4.133,0 17.504,4.228 17.504,9.567 0,1.924 -1.699,4.683 -6.988,7.46 l -10.516,5.64 z m 10.419,44.288 c -2.362,2.724 -6.231,6.877 -10.419,10.113 V 61.981 c 0,0 15.172,-8.539 15.729,-8.903 4.542,1.151 4.311,4.491 4.311,4.837 -0.004,4.208 -4.305,10.722 -9.621,16.867 z"
   id="path55" />
	</g><g
         id="g6576"
         transform="matrix(0.99484184,0,0,1.0128118,2.2597214,-1.7136139)"><path
           d="m 145.60483,162.93524 h 15.78794 v -3.0109 h -12.23662 v -25.16805 h -3.55132 z"
           style="fill:#0022af"
           id="path6477" /><path
           d="m 176.25429,133.75266 -13.62625,29.18258 h 3.74432 l 3.47412,-7.68166 h 12.81563 l 3.47412,7.68166 h 3.78292 z m 0,7.37285 5.09538,11.27158 h -10.19075 z"
           style="fill:#0022af"
           id="path6479" /><path
           d="m 210.84106,137.76719 v -3.0109 H 188.2593 v 3.0109 h 9.49592 v 25.16805 h 3.58992 v -25.16805 z"
           style="fill:#0022af"
           id="path6481" /><path
           d="m 214.9714,134.75629 v 28.17895 h 3.55132 v -28.17895 z"
           style="fill:#0022af"
           id="path6483" /><path
           d="m 245.77527,155.40799 -20.53589,-21.61673 v 29.14398 h 3.51272 v -20.65169 l 20.53589,21.61672 v -29.14398 h -3.51272 z"
           style="fill:#0022af"
           id="path6485" /><path
           d="m 275.42112,133.75266 -13.62626,29.18258 h 3.74432 l 3.47412,-7.68166 h 12.81563 l 3.47412,7.68166 h 3.78293 z m 0,7.37285 5.09537,11.27158 h -10.19075 z"
           style="fill:#0022af"
           id="path6487" /><path
           d="m 308.61827,156.02561 -10.26795,-22.27295 -7.75886,29.18258 h 3.62852 l 4.94097,-19.18484 9.45732,19.99547 9.41871,-19.99547 4.94097,19.18484 h 3.66712 l -7.79746,-29.18258 z"
           style="fill:#0022af"
           id="path6489" /><path
           d="m 331.04566,162.93524 h 16.79157 v -3.0109 h -13.27885 v -9.84333 h 12.08221 v -3.0109 h -12.08221 v -9.30292 h 13.16304 v -3.0109 h -16.67576 z"
           style="fill:#0022af"
           id="path6491" /><path
           d="m 356.7541,151.20045 h 3.24251 l 9.45732,11.73479 h 4.20754 l -9.84333,-12.15941 c 3.86013,-1.00363 6.44641,-3.66712 6.44641,-7.75886 0,-5.28838 -4.28474,-8.26068 -10.11354,-8.26068 h -6.94823 v 28.17895 h 3.55132 z m 0,-13.47186 h 3.35831 c 3.82153,0 6.52362,1.85287 6.52362,5.28838 0,3.43552 -2.70209,5.28838 -6.52362,5.28838 h -3.35831 z"
           style="fill:#0022af"
           id="path6493" /><path
           d="m 377.7532,134.75629 v 28.17895 h 3.55131 v -28.17895 z"
           style="fill:#0022af"
           id="path6495" /><path
           d="m 400.60519,160.00154 c -6.0604,0 -10.84696,-4.90236 -10.84696,-11.15577 0,-6.25341 4.78656,-11.15578 10.84696,-11.15578 3.08811,0 5.906,1.15804 7.79747,3.24251 v -4.16894 c -2.16168,-1.58265 -4.86377,-2.47048 -7.87467,-2.47048 -7.91327,0 -14.32108,6.52362 -14.32108,14.55269 0,8.02907 6.40781,14.55269 14.32108,14.55269 3.0109,0 5.71299,-0.88783 7.87467,-2.47049 v -4.16894 c -1.89147,2.08447 -4.70936,3.24251 -7.79747,3.24251 z"
           style="fill:#0022af"
           id="path6497" /><path
           d="m 424.42224,133.75266 -13.62626,29.18258 h 3.74433 l 3.47411,-7.68166 h 12.81563 l 3.47412,7.68166 h 3.78293 z m 0,7.37285 5.09537,11.27158 h -10.19074 z"
           style="fill:#0022af"
           id="path6499" /></g></g></g></g></g>
</svg>
